<?xml version="1.0" encoding="UTF-8"?>
<svg id="Layer_2" xmlns="http://www.w3.org/2000/svg" version="1.1" viewBox="0 0 1080 362">
  <!-- Generator: Adobe Illustrator 29.0.0, SVG Export Plug-In . SVG Version: 2.1.0 Build 186)  -->
  <defs>
    <style>
      .st0 {
        fill: #fff;
      }
    </style>
  </defs>
  <g>
    <g>
      <g>
        <path class="st0" d="M566.5,267.8v-22.2c0-15.2,2.3-27.9,7-38.8,4.7-10.8,13.1-22.4,25-34.9,11.9-12.8,20.4-23.3,24.8-31.8,4.4-8.4,6.7-17.1,6.7-26.7,0-17.5-5.8-23.3-16.6-23.3s-16.6,6.7-16.6,20.1v21.8h-30.2v-19.8c0-32.9,16.6-51.2,47.7-51.2s47.7,18.3,47.7,51.2-2.9,24.5-9.1,36c-5.8,11.4-15.9,25-30.6,40.5-18.7,19.8-24.1,30.6-24.1,45.4v4.4h60.8v29h-92.6v.3Z"/>
        <g>
          <path class="st0" d="M3.6,267.8V64.1h84.7v29h-52.6v56.8h41.4v29h-41.4v88.8H3.6Z"/>
          <path class="st0" d="M181.4,266.9c-1.9-3.5-2.7-11.2-3.1-23.1-7.7,18.2-21.7,27-41.6,27s-42.8-18.9-42.8-49.4,13.1-48.6,47.5-65.5c14.3-7,23.1-11.9,26.6-15,3.5-3.5,5.4-7.7,5.4-13.1v-3.9c0-15-5.4-22.3-16.6-22.3s-18.5,7.7-18.5,22.7v7.3h-38.5v-5.1c0-38.5,20.1-60.2,57.4-60.2s57.1,20.5,57.1,64.8v79.1c0,25,1.6,44,4.7,56.7h-37.5ZM173.2,203v-33.6c-1.9,2.3-8.8,7.3-20.1,14.7-12.3,7.7-18.5,17.8-18.5,30.5s5.8,21.3,17.4,21.3,21.3-10.8,21.3-32.8Z"/>
          <path class="st0" d="M331.3,68.8v39.7c-3.1-.8-6.6-1.2-10.4-1.2-23.1,0-34.8,15.4-34.8,46.3v113.3h-40.8V70.3h35.5l.8,33.2c5.4-24.6,18.2-37,38.1-37s8.4.8,11.5,2.3h0Z"/>
          <path class="st0" d="M546.8,123.9v143h-40.8V126.6c0-15.8-5.4-23.9-16.6-23.9s-20.5,10.4-20.5,31.6v132.6h-40.8V126.7c0-15.8-5.4-23.9-16.6-23.9s-20.5,10.4-20.5,31.6v132.6h-40.8V70.3h35.5l.8,22.7c7.3-17.8,20.1-26.6,38.5-26.6s32.8,8.8,39.3,26.2c6.6-16.6,21.3-26.2,38.5-26.2,29.3,0,44,19.3,44,57.4h.1Z"/>
          <path class="st0" d="M679.3,267.8V64.1h48.4c32.9,0,47.5,15.2,47.5,46.8v8.2c0,21-7,34.4-20.6,39.8v.5c15.9,5.6,23.9,19.4,23.9,42.5v17.5c0,31.4-16.9,48.4-48.6,48.4h-50.4ZM711.4,147.1h12.6c12.8,0,19.2-6.1,19.2-21.5v-11.4c0-14-5.6-21-16.3-21h-15.4v53.8h0ZM711.4,238.8h18.3c11.4,0,16.6-5.2,16.6-20.1v-17.8c0-18.7-5.8-24.8-20.6-24.8h-14.3v62.6h0Z"/>
        </g>
      </g>
      <g>
        <path class="st0" d="M3.6,307.5h6.1v27.7H3.6v-27.7Z"/>
        <path class="st0" d="M15.1,307.5h6.1l11.5,18.7h0v-18.7h5.7v27.7h-6.1l-11.5-18.5h0v18.5h-5.7v-27.7Z"/>
        <path class="st0" d="M44,307.5h11.9c7.1,0,12.6,4.5,12.6,13.7s-4.1,14-12.6,14h-11.9v-27.7ZM50.1,330.1h5.4c3.5,0,6.9-2.2,6.9-8.3s-1.9-9.2-8-9.2h-4.4v17.5h.1Z"/>
        <path class="st0" d="M96.4,324.7c0,7.5-4.4,11.2-11.8,11.2s-11.8-3.6-11.8-11.2v-17.2h6.1v17.2c0,3,.8,6,5.7,6s5.7-1.8,5.7-6v-17.2h6.1v17.2h0Z"/>
        <path class="st0" d="M105.7,326c0,3.6,2.9,5.2,6.1,5.2s5.4-.6,5.4-3.5-4.1-3.5-8.3-4.5c-4.1-1-8.3-2.7-8.3-7.9s5.3-8.4,10.4-8.4,11.2,2.5,11.2,8.9h-6c-.1-3.4-2.5-4.1-5.4-4.1s-4.1.8-4.1,3.1,1.3,2.5,8.3,4.1c2.1.5,8.3,1.8,8.3,8s-4,8.9-11.5,8.9-11.9-3-11.8-9.9h6-.1Z"/>
        <path class="st0" d="M132.9,312.5h-8.3v-5.2h22.7v5.2h-8.3v22.7h-6.1v-22.7h0Z"/>
        <path class="st0" d="M150.6,307.5h14.9c4.9,0,8.2,3.5,8.2,7.7s-1.3,5.7-4.4,7h0c3,.9,3.9,3.8,4,6.6,0,1.7,0,5.1,1.2,6.6h-6.1c-.6-1.7-.6-4.4-.9-6.6-.4-2.9-1.6-4.1-4.7-4.1h-6.1v10.9h-6.1v-28ZM156.7,320.1h6.7c2.7,0,4.1-1.2,4.1-4s-1.4-3.9-4.1-3.9h-6.7v7.8h0Z"/>
        <path class="st0" d="M178.7,307.5h6.1v27.7h-6.1v-27.7Z"/>
        <path class="st0" d="M190.1,307.5h20.7v5.2h-14.7v6h13.5v4.8h-13.5v6.7h14.9v5.2h-21.1v-27.7h.1Z"/>
        <path class="st0" d="M219.5,326c0,3.6,2.9,5.2,6.1,5.2s5.4-.6,5.4-3.5-4.1-3.5-8.3-4.5c-4.1-1-8.3-2.7-8.3-7.9s5.3-8.4,10.4-8.4,11.2,2.5,11.2,8.9h-6c-.1-3.4-2.5-4.1-5.4-4.1s-4.1.8-4.1,3.1,1.3,2.5,8.3,4.1c2.1.5,8.3,1.8,8.3,8s-4,8.9-11.5,8.9-11.9-3-11.8-9.9h6-.1Z"/>
        <path class="st0" d="M251.4,307.5h6.1v27.7h-6.1v-27.7Z"/>
        <path class="st0" d="M300.2,335.2h-6.1l-4.7-18.9h0l-4.7,18.9h-6.2l-7.4-27.7h6.1l4.4,18.9h0l4.8-18.9h5.7l4.8,19.2h0l4.5-19.2h6l-7.5,27.7h.3Z"/>
        <path class="st0" d="M318,307.5h6.2l10.4,27.7h-6.4l-2.1-6.2h-10.4l-2.2,6.2h-6.2l10.5-27.7h.1ZM317.4,324.5h7.1l-3.5-10.2h0l-3.6,10.2Z"/>
        <path class="st0" d="M337,307.5h14.9c4.9,0,8.2,3.5,8.2,7.7s-1.3,5.7-4.4,7h0c3,.9,3.9,3.8,4,6.6,0,1.7,0,5.1,1.2,6.6h-6.1c-.6-1.7-.6-4.4-.9-6.6-.4-2.9-1.6-4.1-4.7-4.1h-6.1v10.9h-6.1v-28ZM343.1,320.1h6.7c2.7,0,4.1-1.2,4.1-4s-1.4-3.9-4.1-3.9h-6.7v7.8h0Z"/>
        <path class="st0" d="M365.2,307.5h20.7v5.2h-14.7v6h13.5v4.8h-13.5v6.7h14.9v5.2h-21.1v-27.7h.1Z"/>
        <path class="st0" d="M390.3,307.5h6.1v10.6h11.3v-10.6h6.1v27.7h-6.1v-11.9h-11.3v11.9h-6.1v-27.7Z"/>
        <path class="st0" d="M431.5,306.8c8.6,0,13.6,6.4,13.6,14.7s-5.1,14.4-13.6,14.4-13.6-6.4-13.6-14.4,5.1-14.7,13.6-14.7ZM431.5,330.8c5.4,0,7.5-4.7,7.5-9.3s-2.1-9.5-7.5-9.5-7.5,4.7-7.5,9.5,2.1,9.3,7.5,9.3Z"/>
        <path class="st0" d="M473,324.7c0,7.5-4.4,11.2-11.8,11.2s-11.8-3.6-11.8-11.2v-17.2h6.1v17.2c0,3,.8,6,5.7,6s5.7-1.8,5.7-6v-17.2h6.1v17.2Z"/>
        <path class="st0" d="M482.4,326c0,3.6,2.9,5.2,6.1,5.2s5.4-.6,5.4-3.5-4.1-3.5-8.3-4.5c-4.1-1-8.3-2.7-8.3-7.9s5.3-8.4,10.4-8.4,11.2,2.5,11.2,8.9h-6c-.1-3.4-2.5-4.1-5.4-4.1s-4.1.8-4.1,3.1,1.3,2.5,8.3,4.1c2.1.5,8.3,1.8,8.3,8s-4,8.9-11.5,8.9-11.9-3-11.8-9.9h6-.1Z"/>
        <path class="st0" d="M503.5,307.5h20.7v5.2h-14.7v6h13.5v4.8h-13.5v6.7h14.9v5.2h-21.1v-27.7h.1Z"/>
        <path class="st0" d="M532.8,326c0,3.6,2.9,5.2,6.1,5.2s5.4-.6,5.4-3.5-4.1-3.5-8.3-4.5c-4.1-1-8.3-2.7-8.3-7.9s5.3-8.4,10.4-8.4,11.2,2.5,11.2,8.9h-6c-.1-3.4-2.5-4.1-5.4-4.1s-4.1.8-4.1,3.1,1.3,2.5,8.3,4.1c2.1.5,8.3,1.8,8.3,8s-4,8.9-11.5,8.9-11.9-3-11.8-9.9h6-.1Z"/>
        <path class="st0" d="M564.7,307.5h6.1v27.7h-6.1v-27.7Z"/>
        <path class="st0" d="M587,307.5h8.6l6.5,19.1h0l6.1-19.1h8.6v27.7h-5.7v-19.7h0l-6.7,19.7h-4.7l-6.7-19.4h0v19.4h-5.7v-27.7h-.1Z"/>
        <path class="st0" d="M629.9,307.5h6.2l10.4,27.7h-6.4l-2.1-6.2h-10.4l-2.2,6.2h-6.2l10.5-27.7h.1ZM629.3,324.5h7.1l-3.5-10.2h0l-3.6,10.2Z"/>
        <path class="st0" d="M649,307.5h14.9c4.9,0,8.2,3.5,8.2,7.7s-1.3,5.7-4.4,7h0c3,.9,3.9,3.8,4,6.6,0,1.7,0,5.1,1.2,6.6h-6.1c-.6-1.7-.6-4.4-.9-6.6-.4-2.9-1.6-4.1-4.7-4.1h-6.1v10.9h-6.1v-28ZM655.1,320.1h6.7c2.7,0,4.1-1.2,4.1-4s-1.4-3.9-4.1-3.9h-6.7v7.8h0Z"/>
        <path class="st0" d="M677,307.5h6.1v11.5l10.9-11.5h7.7l-10.9,11,11.9,16.9h-7.7l-8.3-12.4-3.5,3.5v8.9h-6.1v-27.7h-.1Z"/>
        <path class="st0" d="M705.1,307.5h20.7v5.2h-14.7v6h13.5v4.8h-13.5v6.7h14.9v5.2h-21.1v-27.7h.1Z"/>
        <path class="st0" d="M736.5,312.5h-8.3v-5.2h22.7v5.2h-8.3v22.7h-6.1v-22.7h0Z"/>
        <path class="st0" d="M758.2,326c0,3.6,2.9,5.2,6.1,5.2s5.4-.6,5.4-3.5-4.1-3.5-8.3-4.5c-4.1-1-8.3-2.7-8.3-7.9s5.3-8.4,10.4-8.4,11.2,2.5,11.2,8.9h-6c-.1-3.4-2.5-4.1-5.4-4.1s-4.1.8-4.1,3.1,1.3,2.5,8.3,4.1c2.1.5,8.3,1.8,8.3,8s-4,8.9-11.5,8.9-11.9-3-11.8-9.9h6-.1Z"/>
      </g>
    </g>
    <g>
      <path class="st0" d="M876.9,55.8h0c9.2-11.8,26.3-13.8,38-4.6l151,118.4c11.8,9.2,13.8,26.3,4.6,38h0c-9.2,11.8-26.3,13.8-38,4.6l-151-118.4c-11.8-9.2-13.8-26.3-4.6-38Z"/>
      <path class="st0" d="M884.1,157.3h0c9.3-11.8,26.3-13.8,38.1-4.5l103.8,81.7c11.8,9.3,13.8,26.3,4.5,38.1h0c-9.3,11.8-26.3,13.8-38.1,4.5l-103.8-81.7c-11.8-9.3-13.8-26.3-4.5-38.1Z"/>
      <path class="st0" d="M838.1,229h0c9.3-11.8,26.3-13.8,38.1-4.5l34.6,27.3c11.8,9.3,13.8,26.3,4.5,38.1h0c-9.3,11.8-26.3,13.8-38.1,4.5l-34.6-27.3c-11.8-9.3-13.8-26.3-4.5-38.1Z"/>
      <path class="st0" d="M809.5,136.1l16.5-21c9.3-11.8,26.3-13.8,38.1-4.5h0c11.8,9.3,13.8,26.3,4.5,38.1l-16.5,21c-9.3,11.8-26.3,13.8-38.1,4.5h0c-11.8-9.3-13.8-26.3-4.5-38.1Z"/>
      <circle class="st0" cx="956.7" cy="322.8" r="26.7"/>
    </g>
  </g>
  <path class="st0" d="M1044.3,12.5c16.2,0,29.7,12.7,29.7,29.6s-13.6,29.8-29.7,29.8-30-12.7-30-29.8,13.6-29.6,30-29.6ZM1044.3,69.2c14.5,0,25.8-11.7,25.8-27.2s-11.3-26.8-25.8-26.8-26.1,11.7-26.1,26.8,11.2,27.2,26.1,27.2ZM1032.7,24.8h13.4c8.3,0,12.2,3.2,12.2,9.9s-4,8.9-9.1,9.5l9.9,15.3h-5.8l-9.5-14.9h-5.7v14.9h-5.4V24.8h.1ZM1038.1,40.1h5.6c4.8,0,9.1-.3,9.1-5.7s-4-5.3-7.7-5.3h-7.1v11h.1Z"/>
</svg>