<?xml version="1.0" encoding="UTF-8"?>
<svg id="Layer_2" xmlns="http://www.w3.org/2000/svg" version="1.1" viewBox="0 0 1080 362">
  <!-- Generator: Adobe Illustrator 29.0.0, SVG Export Plug-In . SVG Version: 2.1.0 Build 186)  -->
  <defs>
    <style>
      .st0 {
        fill: #ef9829;
      }

      .st1 {
        fill: #319d6a;
      }
    </style>
  </defs>
  <g>
    <g>
      <g>
        <path class="st0" d="M565.5,264.4v-21.3c0-14.6,2.2-26.8,6.7-37.2,4.5-10.3,12.6-21.5,24-33.5,11.5-12.3,19.5-22.4,23.8-30.5,4.2-8.1,6.5-16.4,6.5-25.6,0-16.8-5.6-22.4-15.9-22.4s-15.9,6.5-15.9,19.3v20.9h-29v-19c0-31.6,15.9-49.2,45.8-49.2s45.8,17.6,45.8,49.2-2.7,23.5-8.7,34.6c-5.6,11-15.3,24-29.4,38.8-17.9,19-23.2,29.4-23.2,43.6v4.2h58.4v27.9h-88.9v.2Z"/>
        <g>
          <path class="st1" d="M25,264.4V68.8h81.3v27.9h-50.5v54.5h39.7v27.9h-39.7v85.3h-30.8Z"/>
          <path class="st1" d="M195.7,263.5c-1.9-3.4-2.6-10.7-3-22.2-7.3,17.4-20.8,25.9-40,25.9s-41.1-18.2-41.1-47.4,12.6-46.7,45.6-62.9c13.7-6.7,22.2-11.5,25.5-14.4,3.4-3.4,5.2-7.3,5.2-12.6v-3.7c0-14.4-5.2-21.4-15.9-21.4s-17.8,7.3-17.8,21.8v7h-37v-4.9c0-37,19.3-57.8,55.2-57.8s54.8,19.7,54.8,62.3v75.9c0,24,1.5,42.2,4.5,54.4h-36ZM187.9,202.1v-32.2c-1.9,2.2-8.5,7-19.3,14.1-11.8,7.3-17.8,17.1-17.8,29.3s5.6,20.4,16.7,20.4,20.4-10.3,20.4-31.5Z"/>
          <path class="st1" d="M339.6,73.2v38.1c-3-.7-6.3-1.1-10-1.1-22.2,0-33.4,14.8-33.4,44.4v108.8h-39.2V74.7h34.1l.7,31.9c5.2-23.7,17.4-35.5,36.6-35.5s8.1.7,11.1,2.2h0Z"/>
          <path class="st1" d="M546.5,126.2v137.3h-39.2v-134.7c0-15.2-5.2-22.9-15.9-22.9s-19.7,10-19.7,30.4v127.4h-39.2v-134.7c0-15.2-5.2-22.9-15.9-22.9s-19.7,10-19.7,30.4v127.4h-39.2V74.7h34.1l.7,21.8c7-17.1,19.3-25.5,37-25.5s31.5,8.5,37.7,25.1c6.3-15.9,20.4-25.1,37-25.1,28.1,0,42.2,18.6,42.2,55.2h.1Z"/>
          <path class="st1" d="M673.8,264.4V68.8h46.4c31.6,0,45.6,14.6,45.6,44.9v7.8c0,20.2-6.7,33-19.8,38.2v.5c15.3,5.4,22.9,18.7,22.9,40.8v16.8c0,30.1-16.2,46.4-46.7,46.4h-48.4ZM704.5,148.4h12.1c12.3,0,18.4-5.9,18.4-20.7v-11c0-13.4-5.4-20.2-15.7-20.2h-14.8v51.7h0ZM704.5,236.5h17.6c11,0,15.9-5,15.9-19.3v-17.1c0-17.9-5.6-23.8-19.8-23.8h-13.7v60.1h0Z"/>
        </g>
      </g>
      <g>
        <path class="st0" d="M25,302.5h5.9v26.6h-5.9v-26.6Z"/>
        <path class="st0" d="M36,302.5h5.9l11.1,17.9h0v-17.9h5.5v26.6h-5.9l-11.1-17.8h0v17.8h-5.5v-26.6Z"/>
        <path class="st0" d="M63.7,302.5h11.5c6.8,0,12.1,4.4,12.1,13.2s-4,13.4-12.1,13.4h-11.5v-26.6ZM69.6,324.1h5.2c3.4,0,6.6-2.1,6.6-8s-1.9-8.8-7.7-8.8h-4.2v16.8h.1Z"/>
        <path class="st0" d="M114,319c0,7.2-4.2,10.7-11.3,10.7s-11.3-3.5-11.3-10.7v-16.6h5.9v16.6c0,2.9.7,5.7,5.5,5.7s5.5-1.7,5.5-5.7v-16.6h5.9v16.6h0Z"/>
        <path class="st0" d="M123,320.3c0,3.5,2.7,5,5.9,5s5.2-.6,5.2-3.4-4-3.4-8-4.4-8-2.6-8-7.6,5.1-8.1,10-8.1,10.7,2.4,10.7,8.6h-5.7c-.1-3.2-2.4-4-5.2-4s-4,.7-4,3,1.2,2.4,8,4c2,.5,8,1.7,8,7.7s-3.9,8.6-11.1,8.6-11.5-2.9-11.3-9.5h5.7-.1Z"/>
        <path class="st0" d="M149.1,307.3h-8v-5h21.8v5h-8v21.8h-5.9v-21.8h0Z"/>
        <path class="st0" d="M166.1,302.5h14.3c4.7,0,7.8,3.4,7.8,7.3s-1.2,5.5-4.2,6.7h0c2.9.9,3.7,3.6,3.9,6.3,0,1.6,0,4.9,1.1,6.3h-5.9c-.6-1.6-.6-4.2-.9-6.3-.4-2.7-1.5-4-4.5-4h-5.9v10.5h-5.9v-26.9ZM171.9,314.5h6.5c2.6,0,4-1.1,4-3.9s-1.4-3.7-4-3.7h-6.5v7.5h0Z"/>
        <path class="st0" d="M193.1,302.5h5.9v26.6h-5.9v-26.6Z"/>
        <path class="st0" d="M204,302.5h19.9v5h-14.1v5.7h12.9v4.6h-12.9v6.5h14.3v5h-20.3v-26.6h.1Z"/>
        <path class="st0" d="M232.3,320.3c0,3.5,2.7,5,5.9,5s5.2-.6,5.2-3.4-4-3.4-8-4.4c-4-1-8-2.6-8-7.6s5.1-8.1,10-8.1,10.7,2.4,10.7,8.6h-5.7c-.1-3.2-2.4-4-5.2-4s-4,.7-4,3,1.2,2.4,8,4c2,.5,8,1.7,8,7.7s-3.9,8.6-11.1,8.6-11.5-2.9-11.3-9.5h5.7-.1Z"/>
        <path class="st1" d="M262.9,302.5h5.9v26.6h-5.9v-26.6Z"/>
        <path class="st0" d="M309.7,329.1h-5.9l-4.5-18.2h0l-4.5,18.2h-6l-7.1-26.6h5.9l4.2,18.2h0l4.6-18.2h5.5l4.6,18.4h0l4.4-18.4h5.7l-7.2,26.6h.2Z"/>
        <path class="st0" d="M326.8,302.5h6l10,26.6h-6.1l-2-6h-10l-2.1,6h-6l10.1-26.6h.1ZM326.3,318.8h6.8l-3.4-9.8h0l-3.5,9.8Z"/>
        <path class="st0" d="M345.1,302.5h14.3c4.7,0,7.8,3.4,7.8,7.3s-1.2,5.5-4.2,6.7h0c2.9.9,3.7,3.6,3.9,6.3,0,1.6,0,4.9,1.1,6.3h-5.9c-.6-1.6-.6-4.2-.9-6.3-.4-2.7-1.5-4-4.5-4h-5.9v10.5h-5.9v-26.9ZM350.9,314.5h6.5c2.6,0,4-1.1,4-3.9s-1.4-3.7-4-3.7h-6.5v7.5h0Z"/>
        <path class="st0" d="M372.1,302.5h19.9v5h-14.1v5.7h12.9v4.6h-12.9v6.5h14.3v5h-20.3v-26.6h.1Z"/>
        <path class="st0" d="M396.3,302.5h5.9v10.2h10.8v-10.2h5.9v26.6h-5.9v-11.5h-10.8v11.5h-5.9v-26.6Z"/>
        <path class="st0" d="M435.9,301.8c8.2,0,13.1,6.1,13.1,14.1s-4.9,13.8-13.1,13.8-13.1-6.1-13.1-13.8,4.9-14.1,13.1-14.1ZM435.9,324.9c5.2,0,7.2-4.5,7.2-9s-2-9.1-7.2-9.1-7.2,4.5-7.2,9.1,2,9,7.2,9Z"/>
        <path class="st0" d="M475.7,319c0,7.2-4.2,10.7-11.3,10.7s-11.3-3.5-11.3-10.7v-16.6h5.9v16.6c0,2.9.7,5.7,5.5,5.7s5.5-1.7,5.5-5.7v-16.6h5.9v16.6Z"/>
        <path class="st0" d="M484.7,320.3c0,3.5,2.7,5,5.9,5s5.2-.6,5.2-3.4-4-3.4-8-4.4c-4-1-8-2.6-8-7.6s5.1-8.1,10-8.1,10.7,2.4,10.7,8.6h-5.7c-.1-3.2-2.4-4-5.2-4s-4,.7-4,3,1.2,2.4,8,4c2,.5,8,1.7,8,7.7s-3.9,8.6-11.1,8.6-11.5-2.9-11.3-9.5h5.7-.1Z"/>
        <path class="st0" d="M505,302.5h19.9v5h-14.1v5.7h12.9v4.6h-12.9v6.5h14.3v5h-20.3v-26.6h.1Z"/>
        <path class="st0" d="M533.1,320.3c0,3.5,2.7,5,5.9,5s5.2-.6,5.2-3.4-4-3.4-8-4.4-8-2.6-8-7.6,5.1-8.1,10-8.1,10.7,2.4,10.7,8.6h-5.7c-.1-3.2-2.4-4-5.2-4s-4,.7-4,3,1.2,2.4,8,4c2,.5,8,1.7,8,7.7s-3.9,8.6-11.1,8.6-11.5-2.9-11.3-9.5h5.7-.1Z"/>
        <path class="st1" d="M563.7,302.5h5.9v26.6h-5.9v-26.6Z"/>
        <path class="st0" d="M585.1,302.5h8.2l6.2,18.3h0l5.9-18.3h8.2v26.6h-5.5v-18.9h0l-6.5,18.9h-4.5l-6.5-18.7h0v18.7h-5.5v-26.6h-.1Z"/>
        <path class="st0" d="M626.3,302.5h6l10,26.6h-6.1l-2-6h-10l-2.1,6h-6l10.1-26.6h.1ZM625.7,318.8h6.8l-3.4-9.8h0l-3.5,9.8Z"/>
        <path class="st0" d="M644.7,302.5h14.3c4.7,0,7.8,3.4,7.8,7.3s-1.2,5.5-4.2,6.7h0c2.9.9,3.7,3.6,3.9,6.3,0,1.6,0,4.9,1.1,6.3h-5.9c-.6-1.6-.6-4.2-.9-6.3-.4-2.7-1.5-4-4.5-4h-5.9v10.5h-5.9v-26.9ZM650.5,314.5h6.5c2.6,0,4-1.1,4-3.9s-1.4-3.7-4-3.7h-6.5v7.5h0Z"/>
        <path class="st0" d="M671.5,302.5h5.9v11.1l10.5-11.1h7.3l-10.5,10.6,11.5,16.2h-7.3l-8-12-3.4,3.4v8.6h-5.9v-26.6h-.1Z"/>
        <path class="st0" d="M698.6,302.5h19.9v5h-14.1v5.7h12.9v4.6h-12.9v6.5h14.3v5h-20.3v-26.6h.1Z"/>
        <path class="st0" d="M728.7,307.3h-8v-5h21.8v5h-8v21.8h-5.9v-21.8h0Z"/>
        <path class="st0" d="M749.5,320.3c0,3.5,2.7,5,5.9,5s5.2-.6,5.2-3.4-4-3.4-8-4.4-8-2.6-8-7.6,5.1-8.1,10-8.1,10.7,2.4,10.7,8.6h-5.7c-.1-3.2-2.4-4-5.2-4s-4,.7-4,3,1.2,2.4,8,4c2,.5,8,1.7,8,7.7s-3.9,8.6-11.1,8.6-11.5-2.9-11.3-9.5h5.7-.1Z"/>
      </g>
    </g>
    <g>
      <path class="st1" d="M863.5,60.8h0c8.9-11.3,25.2-13.3,36.5-4.4l145,113.7c11.3,8.9,13.3,25.2,4.4,36.5h0c-8.9,11.3-25.2,13.3-36.5,4.4l-145-113.7c-11.3-8.9-13.3-25.2-4.4-36.5Z"/>
      <path class="st0" d="M870.4,158.3h0c8.9-11.3,25.2-13.2,36.5-4.4l99.7,78.5c11.3,8.9,13.2,25.2,4.4,36.5h0c-8.9,11.3-25.2,13.2-36.5,4.4l-99.7-78.5c-11.3-8.9-13.2-25.2-4.4-36.5Z"/>
      <path class="st1" d="M826.2,227.1h0c8.9-11.3,25.2-13.2,36.5-4.4l33.3,26.2c11.3,8.9,13.2,25.2,4.4,36.5h0c-8.9,11.3-25.2,13.2-36.5,4.4l-33.3-26.2c-11.3-8.9-13.2-25.2-4.4-36.5Z"/>
      <path class="st1" d="M798.8,137.9l15.9-20.2c8.9-11.3,25.2-13.2,36.5-4.4h0c11.3,8.9,13.2,25.2,4.4,36.5l-15.9,20.2c-8.9,11.3-25.2,13.2-36.5,4.4h0c-11.3-8.9-13.2-25.2-4.4-36.5Z"/>
      <circle class="st1" cx="940.1" cy="317.1" r="25.6"/>
    </g>
  </g>
  <path class="st1" d="M1024.3,19.2c15.6,0,28.5,12.2,28.5,28.4s-13.1,28.6-28.5,28.6-28.8-12.2-28.8-28.6,13.1-28.4,28.8-28.4ZM1024.3,73.6c13.9,0,24.8-11.2,24.8-26.1s-10.8-25.8-24.8-25.8-25,11.2-25,25.8,10.7,26.1,25,26.1ZM1013.1,31h12.8c8,0,11.7,3.1,11.7,9.5s-3.9,8.6-8.7,9.1l9.5,14.7h-5.6l-9.1-14.3h-5.5v14.3h-5.2V31h.1ZM1018.3,45.7h5.4c4.6,0,8.7-.2,8.7-5.5s-3.9-5.1-7.3-5.1h-6.8v10.6h.1Z"/>
</svg>